# xmcd CD database file generated by Grip 3.3.1
# 
# Track frame offsets:
#       183
#       19928
#       42045
#       58324
#       94224
#       113670
#       123344
#       146480
#       166812
#       186022
#       194177
#       197160
# 
# Disc length: 3135 seconds
# 
# Revision: 1
# Processed by: cddbd v1.5.2PL0 Copyright (c) Steve Scherf et al.
# Submitted via: Grip 3.3.1
# 
DISCID=ac0c3d0c
DTITLE=The Choir of King's College, Cambridge - Academy of St Martin-in-
DTITLE=the-Fields - April Cantelo (soprano) - Ian Partridge (tenor) - Ha
DTITLE=ndel - Ode for Saint Cecilia's Day
DYEAR=1968
DGENRE=Classical
TTITLE0=Ouverture
TTITLE1=Recitative: From Harmony, from heavn'ly Harmony (tenor) - I. Acco
TTITLE1=mpagnato: When Nature underneath a heap of jarring atoms lay (ten
TTITLE1=or)
TTITLE2=II. Chorus: From Harmony, from heavn'ly Harmony
TTITLE3=III. Air: What passion cannot Music raise and quell! (spoprano)
TTITLE4=IV. Solo and Chorus: The Trumpet's loud clangor excites us to arm
TTITLE4=s (tenor, chorus)
TTITLE5=V. La Marche
TTITLE6=VI. Air: The soft complaining Flute (soprano)
TTITLE7=VII. Air: Sharp Violins procalim their jealous pangs (tenor)
TTITLE8=VIII. Air: But oh! what art can teach (soprano)
TTITLE9=IX. Air: Orpheus could lead the savage race (soprano)
TTITLE10=X. Accompagnato: But bright Cecilia (soprano)
TTITLE11=XI. Chorus: As from the pow'r of sacred lays
EXTD=
EXTT0=
EXTT1=
EXTT2=
EXTT3=
EXTT4=
EXTT5=
EXTT6=
EXTT7=
EXTT8=
EXTT9=
EXTT10=
EXTT11=
PLAYORDER=
